<svg xmlns="http://www.w3.org/2000/svg" width="1280" height="760" viewBox="0 0 1280 760"><rect x="0" y="0" width="1280" height="760" rx="0" fill="#f3eee2" opacity="1"/><rect x="0" y="0" width="1280" height="34" rx="0" fill="#e7e0d0" opacity="1"/><circle cx="20" cy="17" r="5" fill="#d98b7a"/><circle cx="36" cy="17" r="5" fill="#d9c07a"/><circle cx="52" cy="17" r="5" fill="#9bbf8a"/><rect x="80" y="8" width="1120" height="18" rx="9" fill="#f3eee2" opacity="1"/><text x="94" y="21" font-family="IBM Plex Mono, monospace" font-size="10" fill="#8c8678" font-weight="400" text-anchor="start">app.houchelleducation.com</text><rect x="0" y="34" width="240" height="726" rx="0" fill="#faf6ec" opacity="1"/><line x1="240" y1="34" x2="240" y2="760" stroke="#dcd5c0"/><text x="24" y="66" font-family="IBM Plex Mono, monospace" font-size="9" fill="#8c8678" font-weight="400" text-anchor="start" letter-spacing="2.5">FEYNMAN EDUCATION</text><text x="24" y="96" font-family="Instrument Serif, Georgia, serif" font-size="26" fill="#1a1714">Feyn<tspan fill="#5e7c4b" font-style="italic">man</tspan></text><rect x="14" y="120" width="212" height="34" rx="6" fill="#f3eee2" stroke="#dcd5c0" opacity="1"/><text x="30" y="142" font-family="IBM Plex Mono, monospace" font-size="12" fill="#8c8678" font-weight="400" text-anchor="start">Search</text><text x="210" y="142" font-family="IBM Plex Mono, monospace" font-size="10" fill="#8c8678" font-weight="400" text-anchor="end">⌘K</text><rect x="0" y="162" width="240" height="30" rx="0" fill="#f3eee2" opacity="1"/><rect x="0" y="162" width="2" height="30" rx="0" fill="#1a1714" opacity="1"/><text x="20" y="182" font-family="IBM Plex Mono, monospace" font-size="12" fill="#1a1714" font-weight="600" text-anchor="start">This week</text><text x="20" y="215" font-family="IBM Plex Mono, monospace" font-size="12" fill="#4d4940" font-weight="500" text-anchor="start">Curriculum</text><text x="20" y="248" font-family="IBM Plex Mono, monospace" font-size="12" fill="#4d4940" font-weight="500" text-anchor="start">Slides</text><text x="20" y="281" font-family="IBM Plex Mono, monospace" font-size="12" fill="#4d4940" font-weight="500" text-anchor="start">Parents</text><text x="20" y="314" font-family="IBM Plex Mono, monospace" font-size="12" fill="#4d4940" font-weight="500" text-anchor="start">Assess</text><text x="20" y="347" font-family="IBM Plex Mono, monospace" font-size="12" fill="#4d4940" font-weight="500" text-anchor="start">School</text><text x="20" y="380" font-family="IBM Plex Mono, monospace" font-size="12" fill="#4d4940" font-weight="500" text-anchor="start">Trust</text><text x="20" y="413" font-family="IBM Plex Mono, monospace" font-size="12" fill="#4d4940" font-weight="500" text-anchor="start">Account</text><line x1="0" y1="702" x2="240" y2="702" stroke="#dcd5c0"/><circle cx="34" cy="731" r="14" fill="#f3eee2" stroke="#dcd5c0"/><text x="34" y="736" font-family="IBM Plex Mono, monospace" font-size="11" fill="#4d4940" font-weight="400" text-anchor="middle">A</text><text x="58" y="727" font-family="IBM Plex Sans, Helvetica, sans-serif" font-size="12" fill="#1a1714" font-weight="500" text-anchor="start">A. Houchell</text><text x="58" y="743" font-family="IBM Plex Mono, monospace" font-size="10" fill="#8c8678" font-weight="400" text-anchor="start">slt</text><text x="276" y="84" font-family="IBM Plex Mono, monospace" font-size="10" fill="#8c8678" font-weight="400" text-anchor="start" letter-spacing="2.6">THIS WEEK · 2026-27</text><line x1="264" y1="80" x2="274" y2="80" stroke="#8c8678"/><text x="276" y="130" font-family="Instrument Serif, Georgia, serif" font-size="40" fill="#1a1714" font-weight="400" text-anchor="start">Next: </text><text x="390" y="130" font-family="Instrument Serif, Georgia, serif" font-size="40" fill="#5e7c4b" font-weight="400" text-anchor="start" font-style="italic">Photosynthesis</text><text x="276" y="156" font-family="IBM Plex Sans, Helvetica, sans-serif" font-size="13" fill="#4d4940" font-weight="400" text-anchor="start">Your next lesson — tap to open.</text><rect x="276" y="174" width="960" height="86" rx="8" fill="#faf6ec" stroke="#dcd5c0" opacity="1"/><rect x="276" y="174" width="3" height="86" rx="0" fill="#5e7c4b" opacity="1"/><text x="300" y="200" font-family="IBM Plex Mono, monospace" font-size="10" fill="#5e7c4b" font-weight="600" text-anchor="start" letter-spacing="1.5">MONDAY, 16 JUN · P3 · LAB 4</text><text x="300" y="230" font-family="Instrument Serif, Georgia, serif" font-size="26" fill="#1a1714" font-weight="400" text-anchor="start">10A / Bi1</text><text x="300" y="250" font-family="IBM Plex Sans, Helvetica, sans-serif" font-size="13" fill="#4d4940" font-weight="400" text-anchor="start">Photosynthesis — limiting factors</text><text x="1212" y="224" font-family="IBM Plex Sans, Helvetica, sans-serif" font-size="22" fill="#5e7c4b" font-weight="400" text-anchor="end">→</text><line x1="276" y1="288" x2="300" y2="288" stroke="#a8a191"/><text x="308" y="292" font-family="IBM Plex Mono, monospace" font-size="10" fill="#8c8678" font-weight="500" text-anchor="start" letter-spacing="2.2">WEEK OF 16 JUNE</text><line x1="413" y1="288" x2="1236" y2="288" stroke="#d8d1bd"/><rect x="276" y="308" width="960" height="250" rx="8" fill="#faf6ec" stroke="#dcd5c0" opacity="1"/><text x="294" y="336" font-family="IBM Plex Mono, monospace" font-size="10" fill="#8c8678" font-weight="600" text-anchor="start" letter-spacing="1.5">MON</text><text x="294" y="354" font-family="Instrument Serif, Georgia, serif" font-size="20" fill="#4d4940" font-weight="400" text-anchor="start">16</text><line x1="360" y1="308" x2="360" y2="358" stroke="#d8d1bd"/><rect x="374" y="320" width="0" height="0" rx="8" fill="#faf6ec" opacity="1"/><rect x="374" y="318" width="260" height="17" rx="4" fill="#5e7c4b14" opacity="1"/><text x="382" y="331" font-family="IBM Plex Sans, Helvetica, sans-serif" font-size="12" fill="#1a1714" font-weight="400" text-anchor="start">10A/Bi1 · Photosynthesis</text><rect x="374" y="320" width="0" height="0" rx="8" fill="#faf6ec" opacity="1"/><rect x="374" y="338" width="260" height="17" rx="4" fill="transparent" opacity="1"/><text x="382" y="351" font-family="IBM Plex Sans, Helvetica, sans-serif" font-size="12" fill="#1a1714" font-weight="400" text-anchor="start">8X/Sc2 · Forces</text><line x1="276" y1="358" x2="1236" y2="358" stroke="#d8d1bd"/><text x="294" y="386" font-family="IBM Plex Mono, monospace" font-size="10" fill="#8c8678" font-weight="600" text-anchor="start" letter-spacing="1.5">TUE</text><text x="294" y="404" font-family="Instrument Serif, Georgia, serif" font-size="20" fill="#4d4940" font-weight="400" text-anchor="start">17</text><line x1="360" y1="358" x2="360" y2="408" stroke="#d8d1bd"/><rect x="374" y="370" width="0" height="0" rx="8" fill="#faf6ec" opacity="1"/><rect x="374" y="368" width="260" height="17" rx="4" fill="#5e7c4b14" opacity="1"/><text x="382" y="381" font-family="IBM Plex Sans, Helvetica, sans-serif" font-size="12" fill="#1a1714" font-weight="400" text-anchor="start">9C/Ch · Acids &amp; alkalis</text><line x1="276" y1="408" x2="1236" y2="408" stroke="#d8d1bd"/><text x="294" y="436" font-family="IBM Plex Mono, monospace" font-size="10" fill="#8c8678" font-weight="600" text-anchor="start" letter-spacing="1.5">WED</text><text x="294" y="454" font-family="Instrument Serif, Georgia, serif" font-size="20" fill="#4d4940" font-weight="400" text-anchor="start">18</text><line x1="360" y1="408" x2="360" y2="458" stroke="#d8d1bd"/><rect x="374" y="420" width="0" height="0" rx="8" fill="#faf6ec" opacity="1"/><rect x="374" y="418" width="260" height="17" rx="4" fill="#5e7c4b14" opacity="1"/><text x="382" y="431" font-family="IBM Plex Sans, Helvetica, sans-serif" font-size="12" fill="#1a1714" font-weight="400" text-anchor="start">10A/Bi1 · Required practical</text><rect x="374" y="420" width="0" height="0" rx="8" fill="#faf6ec" opacity="1"/><rect x="374" y="438" width="260" height="17" rx="4" fill="transparent" opacity="1"/><text x="382" y="451" font-family="IBM Plex Sans, Helvetica, sans-serif" font-size="12" fill="#1a1714" font-weight="400" text-anchor="start">7Y/Sc · Cells</text><line x1="276" y1="458" x2="1236" y2="458" stroke="#d8d1bd"/><text x="294" y="486" font-family="IBM Plex Mono, monospace" font-size="10" fill="#8c8678" font-weight="600" text-anchor="start" letter-spacing="1.5">THU</text><text x="294" y="504" font-family="Instrument Serif, Georgia, serif" font-size="20" fill="#4d4940" font-weight="400" text-anchor="start">19</text><line x1="360" y1="458" x2="360" y2="508" stroke="#d8d1bd"/><text x="382" y="488" font-family="IBM Plex Mono, monospace" font-size="12" fill="#b8b1a0" font-weight="400" text-anchor="start" font-style="italic">—</text><line x1="276" y1="508" x2="1236" y2="508" stroke="#d8d1bd"/><text x="294" y="536" font-family="IBM Plex Mono, monospace" font-size="10" fill="#8c8678" font-weight="600" text-anchor="start" letter-spacing="1.5">FRI</text><text x="294" y="554" font-family="Instrument Serif, Georgia, serif" font-size="20" fill="#4d4940" font-weight="400" text-anchor="start">20</text><line x1="360" y1="508" x2="360" y2="558" stroke="#d8d1bd"/><rect x="374" y="520" width="0" height="0" rx="8" fill="#faf6ec" opacity="1"/><rect x="374" y="518" width="260" height="17" rx="4" fill="#5e7c4b14" opacity="1"/><text x="382" y="531" font-family="IBM Plex Sans, Helvetica, sans-serif" font-size="12" fill="#1a1714" font-weight="400" text-anchor="start">11B/Ph · Electricity (revision)</text></svg>