<svg xmlns="http://www.w3.org/2000/svg" width="1280" height="760" viewBox="0 0 1280 760"><rect x="0" y="0" width="1280" height="760" rx="0" fill="#f3eee2" opacity="1"/><rect x="0" y="0" width="1280" height="34" rx="0" fill="#e7e0d0" opacity="1"/><circle cx="20" cy="17" r="5" fill="#d98b7a"/><circle cx="36" cy="17" r="5" fill="#d9c07a"/><circle cx="52" cy="17" r="5" fill="#9bbf8a"/><rect x="80" y="8" width="1120" height="18" rx="9" fill="#f3eee2" opacity="1"/><text x="94" y="21" font-family="IBM Plex Mono, monospace" font-size="10" fill="#8c8678" font-weight="400" text-anchor="start">app.houchelleducation.com/school</text><rect x="0" y="34" width="240" height="726" rx="0" fill="#faf6ec" opacity="1"/><line x1="240" y1="34" x2="240" y2="760" stroke="#dcd5c0"/><text x="24" y="66" font-family="IBM Plex Mono, monospace" font-size="9" fill="#8c8678" font-weight="400" text-anchor="start" letter-spacing="2.5">FEYNMAN EDUCATION</text><text x="24" y="96" font-family="Instrument Serif, Georgia, serif" font-size="26" fill="#1a1714">Feyn<tspan fill="#5e7c4b" font-style="italic">man</tspan></text><rect x="14" y="120" width="212" height="34" rx="6" fill="#f3eee2" stroke="#dcd5c0" opacity="1"/><text x="30" y="142" font-family="IBM Plex Mono, monospace" font-size="12" fill="#8c8678" font-weight="400" text-anchor="start">Search</text><text x="210" y="142" font-family="IBM Plex Mono, monospace" font-size="10" fill="#8c8678" font-weight="400" text-anchor="end">⌘K</text><text x="20" y="182" font-family="IBM Plex Mono, monospace" font-size="12" fill="#4d4940" font-weight="500" text-anchor="start">This week</text><text x="20" y="215" font-family="IBM Plex Mono, monospace" font-size="12" fill="#4d4940" font-weight="500" text-anchor="start">Curriculum</text><text x="20" y="248" font-family="IBM Plex Mono, monospace" font-size="12" fill="#4d4940" font-weight="500" text-anchor="start">Slides</text><text x="20" y="281" font-family="IBM Plex Mono, monospace" font-size="12" fill="#4d4940" font-weight="500" text-anchor="start">Parents</text><text x="20" y="314" font-family="IBM Plex Mono, monospace" font-size="12" fill="#4d4940" font-weight="500" text-anchor="start">Assess</text><rect x="0" y="327" width="240" height="30" rx="0" fill="#f3eee2" opacity="1"/><rect x="0" y="327" width="2" height="30" rx="0" fill="#1a1714" opacity="1"/><text x="20" y="347" font-family="IBM Plex Mono, monospace" font-size="12" fill="#1a1714" font-weight="600" text-anchor="start">School</text><text x="20" y="380" font-family="IBM Plex Mono, monospace" font-size="12" fill="#4d4940" font-weight="500" text-anchor="start">Trust</text><text x="20" y="413" font-family="IBM Plex Mono, monospace" font-size="12" fill="#4d4940" font-weight="500" text-anchor="start">Account</text><line x1="0" y1="702" x2="240" y2="702" stroke="#dcd5c0"/><circle cx="34" cy="731" r="14" fill="#f3eee2" stroke="#dcd5c0"/><text x="34" y="736" font-family="IBM Plex Mono, monospace" font-size="11" fill="#4d4940" font-weight="400" text-anchor="middle">A</text><text x="58" y="727" font-family="IBM Plex Sans, Helvetica, sans-serif" font-size="12" fill="#1a1714" font-weight="500" text-anchor="start">A. Houchell</text><text x="58" y="743" font-family="IBM Plex Mono, monospace" font-size="10" fill="#8c8678" font-weight="400" text-anchor="start">slt</text><text x="276" y="84" font-family="IBM Plex Mono, monospace" font-size="10" fill="#8c8678" font-weight="400" text-anchor="start" letter-spacing="2.6">OAKWOOD HIGH · LEADERSHIP</text><line x1="264" y1="80" x2="274" y2="80" stroke="#8c8678"/><text x="276" y="130" font-family="Instrument Serif, Georgia, serif" font-size="40" fill="#1a1714" font-weight="400" text-anchor="start">Where the cohort is </text><text x="656" y="130" font-family="Instrument Serif, Georgia, serif" font-size="40" fill="#b95a3c" font-weight="400" text-anchor="start" font-style="italic">weakest</text><text x="789" y="130" font-family="Instrument Serif, Georgia, serif" font-size="40" fill="#1a1714" font-weight="400" text-anchor="start">.</text><text x="276" y="156" font-family="IBM Plex Sans, Helvetica, sans-serif" font-size="13" fill="#4d4940" font-weight="400" text-anchor="start">Aggregated across every class — to target support, not rank teachers. 24 classes.</text><rect x="276" y="176" width="960" height="70" rx="8" fill="#faf6ec" stroke="#dcd5c0" opacity="1"/><text x="294" y="200" font-family="IBM Plex Mono, monospace" font-size="10" fill="#8c8678" font-weight="400" text-anchor="start" letter-spacing="1.4">SCHOOL AVERAGE · TREND</text><text x="294" y="230" font-family="Instrument Serif, Georgia, serif" font-size="26" fill="#5e7c4b" font-weight="400" text-anchor="start">58%</text><text x="348" y="230" font-family="IBM Plex Mono, monospace" font-size="12" fill="#5e7c4b" font-weight="400" text-anchor="start">▲ 6 pts</text><path d="M536,227 L573,221 L609,224 L646,214 L683,207 L719,211 L756,201 " fill="none" stroke="#5e7c4b" stroke-width="2"/><text x="1218" y="200" font-family="IBM Plex Mono, monospace" font-size="10" fill="#8c8678" font-weight="400" text-anchor="end">JOIN CODE</text><text x="1218" y="226" font-family="IBM Plex Mono, monospace" font-size="18" fill="#1a1714" font-weight="600" text-anchor="end">7F3K9A</text><line x1="276" y1="268" x2="300" y2="268" stroke="#a8a191"/><text x="308" y="272" font-family="IBM Plex Mono, monospace" font-size="10" fill="#8c8678" font-weight="500" text-anchor="start" letter-spacing="2.2">WEAKEST OBJECTIVES — COHORT</text><line x1="497" y1="268" x2="1236" y2="268" stroke="#d8d1bd"/><rect x="276" y="286" width="960" height="200" rx="8" fill="#faf6ec" stroke="#dcd5c0" opacity="1"/><text x="294" y="311" font-family="IBM Plex Sans, Helvetica, sans-serif" font-size="14" fill="#1a1714" font-weight="400" text-anchor="start">Required practical: osmosis</text><rect x="1016" y="302" width="120" height="8" rx="4" fill="#f3eee2" opacity="1"/><rect x="1016" y="302" width="40.8" height="8" rx="4" fill="#b95a3c" opacity="0.8"/><text x="1146" y="311" font-family="IBM Plex Mono, monospace" font-size="12" fill="#b95a3c" font-weight="600" text-anchor="start">34%</text><text x="1218" y="311" font-family="IBM Plex Mono, monospace" font-size="11" fill="#8c8678" font-weight="400" text-anchor="end">7 classes</text><line x1="276" y1="326" x2="1236" y2="326" stroke="#d8d1bd"/><text x="294" y="351" font-family="IBM Plex Sans, Helvetica, sans-serif" font-size="14" fill="#1a1714" font-weight="400" text-anchor="start">Balancing equations</text><rect x="1016" y="342" width="120" height="8" rx="4" fill="#f3eee2" opacity="1"/><rect x="1016" y="342" width="49.2" height="8" rx="4" fill="#a06520" opacity="0.8"/><text x="1146" y="351" font-family="IBM Plex Mono, monospace" font-size="12" fill="#a06520" font-weight="600" text-anchor="start">41%</text><text x="1218" y="351" font-family="IBM Plex Mono, monospace" font-size="11" fill="#8c8678" font-weight="400" text-anchor="end">9 classes</text><line x1="276" y1="366" x2="1236" y2="366" stroke="#d8d1bd"/><text x="294" y="391" font-family="IBM Plex Sans, Helvetica, sans-serif" font-size="14" fill="#1a1714" font-weight="400" text-anchor="start">Moments &amp; levers</text><rect x="1016" y="382" width="120" height="8" rx="4" fill="#f3eee2" opacity="1"/><rect x="1016" y="382" width="56.4" height="8" rx="4" fill="#a06520" opacity="0.8"/><text x="1146" y="391" font-family="IBM Plex Mono, monospace" font-size="12" fill="#a06520" font-weight="600" text-anchor="start">47%</text><text x="1218" y="391" font-family="IBM Plex Mono, monospace" font-size="11" fill="#8c8678" font-weight="400" text-anchor="end">6 classes</text><line x1="276" y1="406" x2="1236" y2="406" stroke="#d8d1bd"/><text x="294" y="431" font-family="IBM Plex Sans, Helvetica, sans-serif" font-size="14" fill="#1a1714" font-weight="400" text-anchor="start">Electrolysis half-equations</text><rect x="1016" y="422" width="120" height="8" rx="4" fill="#f3eee2" opacity="1"/><rect x="1016" y="422" width="62.4" height="8" rx="4" fill="#a06520" opacity="0.8"/><text x="1146" y="431" font-family="IBM Plex Mono, monospace" font-size="12" fill="#a06520" font-weight="600" text-anchor="start">52%</text><text x="1218" y="431" font-family="IBM Plex Mono, monospace" font-size="11" fill="#8c8678" font-weight="400" text-anchor="end">5 classes</text><line x1="276" y1="446" x2="1236" y2="446" stroke="#d8d1bd"/><text x="294" y="471" font-family="IBM Plex Sans, Helvetica, sans-serif" font-size="14" fill="#1a1714" font-weight="400" text-anchor="start">Rates: collision theory</text><rect x="1016" y="462" width="120" height="8" rx="4" fill="#f3eee2" opacity="1"/><rect x="1016" y="462" width="73.2" height="8" rx="4" fill="#a06520" opacity="0.8"/><text x="1146" y="471" font-family="IBM Plex Mono, monospace" font-size="12" fill="#a06520" font-weight="600" text-anchor="start">61%</text><text x="1218" y="471" font-family="IBM Plex Mono, monospace" font-size="11" fill="#8c8678" font-weight="400" text-anchor="end">8 classes</text></svg>