<svg xmlns="http://www.w3.org/2000/svg" width="1280" height="760" viewBox="0 0 1280 760"><rect x="0" y="0" width="1280" height="760" rx="0" fill="#f3eee2" opacity="1"/><rect x="0" y="0" width="1280" height="34" rx="0" fill="#e7e0d0" opacity="1"/><circle cx="20" cy="17" r="5" fill="#d98b7a"/><circle cx="36" cy="17" r="5" fill="#d9c07a"/><circle cx="52" cy="17" r="5" fill="#9bbf8a"/><rect x="80" y="8" width="1120" height="18" rx="9" fill="#f3eee2" opacity="1"/><text x="94" y="21" font-family="IBM Plex Mono, monospace" font-size="10" fill="#8c8678" font-weight="400" text-anchor="start">app.feynman.education/assessments</text><rect x="0" y="34" width="240" height="726" rx="0" fill="#faf6ec" opacity="1"/><line x1="240" y1="34" x2="240" y2="760" stroke="#dcd5c0"/><text x="24" y="66" font-family="IBM Plex Mono, monospace" font-size="9" fill="#8c8678" font-weight="400" text-anchor="start" letter-spacing="2.5">FEYNMAN EDUCATION</text><text x="24" y="96" font-family="Instrument Serif, Georgia, serif" font-size="26" fill="#1a1714">Feyn<tspan fill="#5e7c4b" font-style="italic">man</tspan></text><rect x="14" y="120" width="212" height="34" rx="6" fill="#f3eee2" stroke="#dcd5c0" opacity="1"/><text x="30" y="142" font-family="IBM Plex Mono, monospace" font-size="12" fill="#8c8678" font-weight="400" text-anchor="start">Search</text><text x="210" y="142" font-family="IBM Plex Mono, monospace" font-size="10" fill="#8c8678" font-weight="400" text-anchor="end">⌘K</text><text x="20" y="182" font-family="IBM Plex Mono, monospace" font-size="12" fill="#4d4940" font-weight="500" text-anchor="start">This week</text><text x="20" y="215" font-family="IBM Plex Mono, monospace" font-size="12" fill="#4d4940" font-weight="500" text-anchor="start">Curriculum</text><text x="20" y="248" font-family="IBM Plex Mono, monospace" font-size="12" fill="#4d4940" font-weight="500" text-anchor="start">Slides</text><text x="20" y="281" font-family="IBM Plex Mono, monospace" font-size="12" fill="#4d4940" font-weight="500" text-anchor="start">Parents</text><rect x="0" y="294" width="240" height="30" rx="0" fill="#f3eee2" opacity="1"/><rect x="0" y="294" width="2" height="30" rx="0" fill="#1a1714" opacity="1"/><text x="20" y="314" font-family="IBM Plex Mono, monospace" font-size="12" fill="#1a1714" font-weight="600" text-anchor="start">Assess</text><text x="20" y="347" font-family="IBM Plex Mono, monospace" font-size="12" fill="#4d4940" font-weight="500" text-anchor="start">School</text><text x="20" y="380" font-family="IBM Plex Mono, monospace" font-size="12" fill="#4d4940" font-weight="500" text-anchor="start">Trust</text><text x="20" y="413" font-family="IBM Plex Mono, monospace" font-size="12" fill="#4d4940" font-weight="500" text-anchor="start">Account</text><line x1="0" y1="702" x2="240" y2="702" stroke="#dcd5c0"/><circle cx="34" cy="731" r="14" fill="#f3eee2" stroke="#dcd5c0"/><text x="34" y="736" font-family="IBM Plex Mono, monospace" font-size="11" fill="#4d4940" font-weight="400" text-anchor="middle">A</text><text x="58" y="727" font-family="IBM Plex Sans, Helvetica, sans-serif" font-size="12" fill="#1a1714" font-weight="500" text-anchor="start">A. Houchell</text><text x="58" y="743" font-family="IBM Plex Mono, monospace" font-size="10" fill="#8c8678" font-weight="400" text-anchor="start">slt</text><text x="276" y="78" font-family="IBM Plex Mono, monospace" font-size="11" fill="#4d4940" font-weight="400" text-anchor="start" letter-spacing="1">← Assessments</text><text x="276" y="116" font-family="Instrument Serif, Georgia, serif" font-size="30" fill="#1a1714" font-weight="400" text-anchor="start">Year 10 Mock — Paper 1</text><line x1="276" y1="148" x2="300" y2="148" stroke="#a8a191"/><text x="308" y="152" font-family="IBM Plex Mono, monospace" font-size="10" fill="#8c8678" font-weight="500" text-anchor="start" letter-spacing="2.2">MARKS</text><line x1="343" y1="148" x2="1236" y2="148" stroke="#d8d1bd"/><rect x="276" y="152" width="960" height="194" rx="8" fill="#faf6ec" stroke="#dcd5c0" opacity="1"/><text x="294" y="172" font-family="IBM Plex Mono, monospace" font-size="10" fill="#8c8678" font-weight="600" text-anchor="start">PUPIL</text><text x="444" y="172" font-family="IBM Plex Mono, monospace" font-size="10" fill="#8c8678" font-weight="600" text-anchor="middle">Q1</text><text x="502" y="172" font-family="IBM Plex Mono, monospace" font-size="10" fill="#8c8678" font-weight="600" text-anchor="middle">Q2</text><text x="560" y="172" font-family="IBM Plex Mono, monospace" font-size="10" fill="#8c8678" font-weight="600" text-anchor="middle">Q3</text><text x="618" y="172" font-family="IBM Plex Mono, monospace" font-size="10" fill="#8c8678" font-weight="600" text-anchor="middle">Q4</text><text x="676" y="172" font-family="IBM Plex Mono, monospace" font-size="10" fill="#8c8678" font-weight="600" text-anchor="middle">Q5</text><text x="734" y="172" font-family="IBM Plex Mono, monospace" font-size="10" fill="#8c8678" font-weight="600" text-anchor="middle">Q6</text><text x="802" y="172" font-family="IBM Plex Mono, monospace" font-size="10" fill="#8c8678" font-weight="600" text-anchor="start">%</text><text x="294" y="200" font-family="IBM Plex Sans, Helvetica, sans-serif" font-size="12" fill="#1a1714" font-weight="400" text-anchor="start">Alex C</text><rect x="422" y="184" width="40" height="22" rx="4" fill="#f3eee2" stroke="#dcd5c0" opacity="1"/><text x="442" y="200" font-family="IBM Plex Mono, monospace" font-size="12" fill="#1a1714" font-weight="400" text-anchor="middle">0</text><rect x="480" y="184" width="40" height="22" rx="4" fill="#f3eee2" stroke="#dcd5c0" opacity="1"/><text x="500" y="200" font-family="IBM Plex Mono, monospace" font-size="12" fill="#1a1714" font-weight="400" text-anchor="middle">2</text><rect x="538" y="184" width="40" height="22" rx="4" fill="#f3eee2" stroke="#dcd5c0" opacity="1"/><text x="558" y="200" font-family="IBM Plex Mono, monospace" font-size="12" fill="#1a1714" font-weight="400" text-anchor="middle">1</text><rect x="596" y="184" width="40" height="22" rx="4" fill="#f3eee2" stroke="#dcd5c0" opacity="1"/><text x="616" y="200" font-family="IBM Plex Mono, monospace" font-size="12" fill="#1a1714" font-weight="400" text-anchor="middle">1</text><rect x="654" y="184" width="40" height="22" rx="4" fill="#f3eee2" stroke="#dcd5c0" opacity="1"/><text x="674" y="200" font-family="IBM Plex Mono, monospace" font-size="12" fill="#1a1714" font-weight="400" text-anchor="middle">4</text><rect x="712" y="184" width="40" height="22" rx="4" fill="#f3eee2" stroke="#dcd5c0" opacity="1"/><text x="732" y="200" font-family="IBM Plex Mono, monospace" font-size="12" fill="#1a1714" font-weight="400" text-anchor="middle">3</text><text x="802" y="200" font-family="IBM Plex Mono, monospace" font-size="12" fill="#5e7c4b" font-weight="600" text-anchor="start">73%</text><text x="294" y="230" font-family="IBM Plex Sans, Helvetica, sans-serif" font-size="12" fill="#1a1714" font-weight="400" text-anchor="start">Bina S</text><rect x="422" y="214" width="40" height="22" rx="4" fill="#f3eee2" stroke="#dcd5c0" opacity="1"/><text x="442" y="230" font-family="IBM Plex Mono, monospace" font-size="12" fill="#1a1714" font-weight="400" text-anchor="middle">0</text><rect x="480" y="214" width="40" height="22" rx="4" fill="#f3eee2" stroke="#dcd5c0" opacity="1"/><text x="500" y="230" font-family="IBM Plex Mono, monospace" font-size="12" fill="#1a1714" font-weight="400" text-anchor="middle">2</text><rect x="538" y="214" width="40" height="22" rx="4" fill="#f3eee2" stroke="#dcd5c0" opacity="1"/><text x="558" y="230" font-family="IBM Plex Mono, monospace" font-size="12" fill="#1a1714" font-weight="400" text-anchor="middle">0</text><rect x="596" y="214" width="40" height="22" rx="4" fill="#f3eee2" stroke="#dcd5c0" opacity="1"/><text x="616" y="230" font-family="IBM Plex Mono, monospace" font-size="12" fill="#1a1714" font-weight="400" text-anchor="middle">1</text><rect x="654" y="214" width="40" height="22" rx="4" fill="#f3eee2" stroke="#dcd5c0" opacity="1"/><text x="674" y="230" font-family="IBM Plex Mono, monospace" font-size="12" fill="#1a1714" font-weight="400" text-anchor="middle">2</text><rect x="712" y="214" width="40" height="22" rx="4" fill="#f3eee2" stroke="#dcd5c0" opacity="1"/><text x="732" y="230" font-family="IBM Plex Mono, monospace" font-size="12" fill="#1a1714" font-weight="400" text-anchor="middle">1</text><text x="802" y="230" font-family="IBM Plex Mono, monospace" font-size="12" fill="#a06520" font-weight="600" text-anchor="start">40%</text><text x="294" y="260" font-family="IBM Plex Sans, Helvetica, sans-serif" font-size="12" fill="#1a1714" font-weight="400" text-anchor="start">Cara M</text><rect x="422" y="244" width="40" height="22" rx="4" fill="#f3eee2" stroke="#dcd5c0" opacity="1"/><text x="442" y="260" font-family="IBM Plex Mono, monospace" font-size="12" fill="#1a1714" font-weight="400" text-anchor="middle">0</text><rect x="480" y="244" width="40" height="22" rx="4" fill="#f3eee2" stroke="#dcd5c0" opacity="1"/><text x="500" y="260" font-family="IBM Plex Mono, monospace" font-size="12" fill="#1a1714" font-weight="400" text-anchor="middle">2</text><rect x="538" y="244" width="40" height="22" rx="4" fill="#f3eee2" stroke="#dcd5c0" opacity="1"/><text x="558" y="260" font-family="IBM Plex Mono, monospace" font-size="12" fill="#1a1714" font-weight="400" text-anchor="middle">3</text><rect x="596" y="244" width="40" height="22" rx="4" fill="#f3eee2" stroke="#dcd5c0" opacity="1"/><text x="616" y="260" font-family="IBM Plex Mono, monospace" font-size="12" fill="#1a1714" font-weight="400" text-anchor="middle">2</text><rect x="654" y="244" width="40" height="22" rx="4" fill="#f3eee2" stroke="#dcd5c0" opacity="1"/><text x="674" y="260" font-family="IBM Plex Mono, monospace" font-size="12" fill="#1a1714" font-weight="400" text-anchor="middle">4</text><rect x="712" y="244" width="40" height="22" rx="4" fill="#f3eee2" stroke="#dcd5c0" opacity="1"/><text x="732" y="260" font-family="IBM Plex Mono, monospace" font-size="12" fill="#1a1714" font-weight="400" text-anchor="middle">3</text><text x="802" y="260" font-family="IBM Plex Mono, monospace" font-size="12" fill="#5e7c4b" font-weight="600" text-anchor="start">93%</text><text x="294" y="290" font-family="IBM Plex Sans, Helvetica, sans-serif" font-size="12" fill="#1a1714" font-weight="400" text-anchor="start">Dev P</text><rect x="422" y="274" width="40" height="22" rx="4" fill="#f3eee2" stroke="#dcd5c0" opacity="1"/><text x="442" y="290" font-family="IBM Plex Mono, monospace" font-size="12" fill="#1a1714" font-weight="400" text-anchor="middle">1</text><rect x="480" y="274" width="40" height="22" rx="4" fill="#f3eee2" stroke="#dcd5c0" opacity="1"/><text x="500" y="290" font-family="IBM Plex Mono, monospace" font-size="12" fill="#1a1714" font-weight="400" text-anchor="middle">2</text><rect x="538" y="274" width="40" height="22" rx="4" fill="#f3eee2" stroke="#dcd5c0" opacity="1"/><text x="558" y="290" font-family="IBM Plex Mono, monospace" font-size="12" fill="#1a1714" font-weight="400" text-anchor="middle">1</text><rect x="596" y="274" width="40" height="22" rx="4" fill="#f3eee2" stroke="#dcd5c0" opacity="1"/><text x="616" y="290" font-family="IBM Plex Mono, monospace" font-size="12" fill="#1a1714" font-weight="400" text-anchor="middle">0</text><rect x="654" y="274" width="40" height="22" rx="4" fill="#f3eee2" stroke="#dcd5c0" opacity="1"/><text x="674" y="290" font-family="IBM Plex Mono, monospace" font-size="12" fill="#1a1714" font-weight="400" text-anchor="middle">1</text><rect x="712" y="274" width="40" height="22" rx="4" fill="#f3eee2" stroke="#dcd5c0" opacity="1"/><text x="732" y="290" font-family="IBM Plex Mono, monospace" font-size="12" fill="#1a1714" font-weight="400" text-anchor="middle">3</text><text x="802" y="290" font-family="IBM Plex Mono, monospace" font-size="12" fill="#a06520" font-weight="600" text-anchor="start">53%</text><text x="294" y="320" font-family="IBM Plex Sans, Helvetica, sans-serif" font-size="12" fill="#1a1714" font-weight="400" text-anchor="start">Esme R</text><rect x="422" y="304" width="40" height="22" rx="4" fill="#f3eee2" stroke="#dcd5c0" opacity="1"/><text x="442" y="320" font-family="IBM Plex Mono, monospace" font-size="12" fill="#1a1714" font-weight="400" text-anchor="middle">0</text><rect x="480" y="304" width="40" height="22" rx="4" fill="#f3eee2" stroke="#dcd5c0" opacity="1"/><text x="500" y="320" font-family="IBM Plex Mono, monospace" font-size="12" fill="#1a1714" font-weight="400" text-anchor="middle">2</text><rect x="538" y="304" width="40" height="22" rx="4" fill="#f3eee2" stroke="#dcd5c0" opacity="1"/><text x="558" y="320" font-family="IBM Plex Mono, monospace" font-size="12" fill="#1a1714" font-weight="400" text-anchor="middle">0</text><rect x="596" y="304" width="40" height="22" rx="4" fill="#f3eee2" stroke="#dcd5c0" opacity="1"/><text x="616" y="320" font-family="IBM Plex Mono, monospace" font-size="12" fill="#1a1714" font-weight="400" text-anchor="middle">0</text><rect x="654" y="304" width="40" height="22" rx="4" fill="#f3eee2" stroke="#dcd5c0" opacity="1"/><text x="674" y="320" font-family="IBM Plex Mono, monospace" font-size="12" fill="#1a1714" font-weight="400" text-anchor="middle">4</text><rect x="712" y="304" width="40" height="22" rx="4" fill="#f3eee2" stroke="#dcd5c0" opacity="1"/><text x="732" y="320" font-family="IBM Plex Mono, monospace" font-size="12" fill="#1a1714" font-weight="400" text-anchor="middle">0</text><text x="802" y="320" font-family="IBM Plex Mono, monospace" font-size="12" fill="#a06520" font-weight="600" text-anchor="start">40%</text><line x1="276" y1="378" x2="300" y2="378" stroke="#a8a191"/><text x="308" y="382" font-family="IBM Plex Mono, monospace" font-size="10" fill="#8c8678" font-weight="500" text-anchor="start" letter-spacing="2.2">QUESTION-LEVEL ANALYSIS · BY TOPIC</text><line x1="546" y1="378" x2="1236" y2="378" stroke="#d8d1bd"/><rect x="276" y="396" width="960" height="152" rx="8" fill="#faf6ec" stroke="#dcd5c0" opacity="1"/><text x="294" y="420" font-family="IBM Plex Sans, Helvetica, sans-serif" font-size="14" fill="#1a1714" font-weight="400" text-anchor="start">Cell transport</text><rect x="1056" y="411" width="110" height="8" rx="4" fill="#f3eee2" opacity="1"/><rect x="1056" y="411" width="41.8" height="8" rx="4" fill="#b95a3c" opacity="0.8"/><text x="1218" y="420" font-family="IBM Plex Mono, monospace" font-size="12" fill="#b95a3c" font-weight="600" text-anchor="end">38%</text><line x1="276" y1="434" x2="1236" y2="434" stroke="#d8d1bd"/><text x="294" y="458" font-family="IBM Plex Sans, Helvetica, sans-serif" font-size="14" fill="#1a1714" font-weight="400" text-anchor="start">Enzymes</text><rect x="1056" y="449" width="110" height="8" rx="4" fill="#f3eee2" opacity="1"/><rect x="1056" y="449" width="50.6" height="8" rx="4" fill="#a06520" opacity="0.8"/><text x="1218" y="458" font-family="IBM Plex Mono, monospace" font-size="12" fill="#a06520" font-weight="600" text-anchor="end">46%</text><line x1="276" y1="472" x2="1236" y2="472" stroke="#d8d1bd"/><text x="294" y="496" font-family="IBM Plex Sans, Helvetica, sans-serif" font-size="14" fill="#1a1714" font-weight="400" text-anchor="start">Photosynthesis</text><rect x="1056" y="487" width="110" height="8" rx="4" fill="#f3eee2" opacity="1"/><rect x="1056" y="487" width="64.9" height="8" rx="4" fill="#a06520" opacity="0.8"/><text x="1218" y="496" font-family="IBM Plex Mono, monospace" font-size="12" fill="#a06520" font-weight="600" text-anchor="end">59%</text><line x1="276" y1="510" x2="1236" y2="510" stroke="#d8d1bd"/><text x="294" y="534" font-family="IBM Plex Sans, Helvetica, sans-serif" font-size="14" fill="#1a1714" font-weight="400" text-anchor="start">Respiration</text><rect x="1056" y="525" width="110" height="8" rx="4" fill="#f3eee2" opacity="1"/><rect x="1056" y="525" width="78.1" height="8" rx="4" fill="#5e7c4b" opacity="0.8"/><text x="1218" y="534" font-family="IBM Plex Mono, monospace" font-size="12" fill="#5e7c4b" font-weight="600" text-anchor="end">71%</text></svg>