<svg xmlns="http://www.w3.org/2000/svg" width="1280" height="760" viewBox="0 0 1280 760"><rect x="0" y="0" width="1280" height="760" rx="0" fill="#f3eee2" opacity="1"/><rect x="0" y="0" width="1280" height="34" rx="0" fill="#e7e0d0" opacity="1"/><circle cx="20" cy="17" r="5" fill="#d98b7a"/><circle cx="36" cy="17" r="5" fill="#d9c07a"/><circle cx="52" cy="17" r="5" fill="#9bbf8a"/><rect x="80" y="8" width="1120" height="18" rx="9" fill="#f3eee2" opacity="1"/><text x="94" y="21" font-family="IBM Plex Mono, monospace" font-size="10" fill="#8c8678" font-weight="400" text-anchor="start">app.houchelleducation.com/trust</text><rect x="0" y="34" width="240" height="726" rx="0" fill="#faf6ec" opacity="1"/><line x1="240" y1="34" x2="240" y2="760" stroke="#dcd5c0"/><text x="24" y="66" font-family="IBM Plex Mono, monospace" font-size="9" fill="#8c8678" font-weight="400" text-anchor="start" letter-spacing="2.5">FEYNMAN EDUCATION</text><text x="24" y="96" font-family="Instrument Serif, Georgia, serif" font-size="26" fill="#1a1714">Feyn<tspan fill="#5e7c4b" font-style="italic">man</tspan></text><rect x="14" y="120" width="212" height="34" rx="6" fill="#f3eee2" stroke="#dcd5c0" opacity="1"/><text x="30" y="142" font-family="IBM Plex Mono, monospace" font-size="12" fill="#8c8678" font-weight="400" text-anchor="start">Search</text><text x="210" y="142" font-family="IBM Plex Mono, monospace" font-size="10" fill="#8c8678" font-weight="400" text-anchor="end">⌘K</text><text x="20" y="182" font-family="IBM Plex Mono, monospace" font-size="12" fill="#4d4940" font-weight="500" text-anchor="start">This week</text><text x="20" y="215" font-family="IBM Plex Mono, monospace" font-size="12" fill="#4d4940" font-weight="500" text-anchor="start">Curriculum</text><text x="20" y="248" font-family="IBM Plex Mono, monospace" font-size="12" fill="#4d4940" font-weight="500" text-anchor="start">Slides</text><text x="20" y="281" font-family="IBM Plex Mono, monospace" font-size="12" fill="#4d4940" font-weight="500" text-anchor="start">Parents</text><text x="20" y="314" font-family="IBM Plex Mono, monospace" font-size="12" fill="#4d4940" font-weight="500" text-anchor="start">Assess</text><text x="20" y="347" font-family="IBM Plex Mono, monospace" font-size="12" fill="#4d4940" font-weight="500" text-anchor="start">School</text><rect x="0" y="360" width="240" height="30" rx="0" fill="#f3eee2" opacity="1"/><rect x="0" y="360" width="2" height="30" rx="0" fill="#1a1714" opacity="1"/><text x="20" y="380" font-family="IBM Plex Mono, monospace" font-size="12" fill="#1a1714" font-weight="600" text-anchor="start">Trust</text><text x="20" y="413" font-family="IBM Plex Mono, monospace" font-size="12" fill="#4d4940" font-weight="500" text-anchor="start">Account</text><line x1="0" y1="702" x2="240" y2="702" stroke="#dcd5c0"/><circle cx="34" cy="731" r="14" fill="#f3eee2" stroke="#dcd5c0"/><text x="34" y="736" font-family="IBM Plex Mono, monospace" font-size="11" fill="#4d4940" font-weight="400" text-anchor="middle">A</text><text x="58" y="727" font-family="IBM Plex Sans, Helvetica, sans-serif" font-size="12" fill="#1a1714" font-weight="500" text-anchor="start">A. Houchell</text><text x="58" y="743" font-family="IBM Plex Mono, monospace" font-size="10" fill="#8c8678" font-weight="400" text-anchor="start">slt</text><text x="276" y="84" font-family="IBM Plex Mono, monospace" font-size="10" fill="#8c8678" font-weight="400" text-anchor="start" letter-spacing="2.6">NORTHSTAR TRUST · TRUST</text><line x1="264" y1="80" x2="274" y2="80" stroke="#8c8678"/><text x="276" y="130" font-family="Instrument Serif, Georgia, serif" font-size="40" fill="#1a1714" font-weight="400" text-anchor="start">Every school, </text><text x="542" y="130" font-family="Instrument Serif, Georgia, serif" font-size="40" fill="#5e7c4b" font-weight="400" text-anchor="start" font-style="italic">one</text><text x="599" y="130" font-family="Instrument Serif, Georgia, serif" font-size="40" fill="#1a1714" font-weight="400" text-anchor="start"> picture.</text><text x="276" y="156" font-family="IBM Plex Sans, Helvetica, sans-serif" font-size="13" fill="#4d4940" font-weight="400" text-anchor="start">6 schools on the same mastery graph. Trust average mastery 61%.</text><line x1="276" y1="180" x2="300" y2="180" stroke="#a8a191"/><text x="308" y="184" font-family="IBM Plex Mono, monospace" font-size="10" fill="#8c8678" font-weight="500" text-anchor="start" letter-spacing="2.2">SCHOOLS — BENCHMARKED</text><line x1="455" y1="180" x2="1236" y2="180" stroke="#d8d1bd"/><rect x="276" y="198" width="960" height="264" rx="8" fill="#faf6ec" stroke="#dcd5c0" opacity="1"/><circle cx="298" cy="220" r="4" fill="#a06520"/><text x="314" y="225" font-family="IBM Plex Sans, Helvetica, sans-serif" font-size="14" fill="#1a1714" font-weight="500" text-anchor="start">Oakwood High</text><rect x="410" y="213" width="86" height="16" rx="3" fill="#a0652018" opacity="1"/><text x="416" y="225" font-family="IBM Plex Mono, monospace" font-size="9" fill="#a06520" font-weight="600" text-anchor="start">BELOW AVG</text><rect x="1036" y="216" width="110" height="8" rx="4" fill="#f3eee2" opacity="1"/><rect x="1036" y="216" width="57.2" height="8" rx="4" fill="#a06520" opacity="0.8"/><text x="1164" y="225" font-family="IBM Plex Mono, monospace" font-size="12" fill="#a06520" font-weight="600" text-anchor="start">52%</text><line x1="276" y1="242" x2="1236" y2="242" stroke="#d8d1bd"/><circle cx="298" cy="264" r="4" fill="#a06520"/><text x="314" y="269" font-family="IBM Plex Sans, Helvetica, sans-serif" font-size="14" fill="#1a1714" font-weight="500" text-anchor="start">Bridgeford Academy</text><rect x="458" y="257" width="86" height="16" rx="3" fill="#a0652018" opacity="1"/><text x="464" y="269" font-family="IBM Plex Mono, monospace" font-size="9" fill="#a06520" font-weight="600" text-anchor="start">BELOW AVG</text><rect x="1036" y="260" width="110" height="8" rx="4" fill="#f3eee2" opacity="1"/><rect x="1036" y="260" width="62.7" height="8" rx="4" fill="#a06520" opacity="0.8"/><text x="1164" y="269" font-family="IBM Plex Mono, monospace" font-size="12" fill="#a06520" font-weight="600" text-anchor="start">57%</text><line x1="276" y1="286" x2="1236" y2="286" stroke="#d8d1bd"/><circle cx="298" cy="308" r="4" fill="#a06520"/><text x="314" y="313" font-family="IBM Plex Sans, Helvetica, sans-serif" font-size="14" fill="#1a1714" font-weight="500" text-anchor="start">Castle Park</text><rect x="1036" y="304" width="110" height="8" rx="4" fill="#f3eee2" opacity="1"/><rect x="1036" y="304" width="67.1" height="8" rx="4" fill="#a06520" opacity="0.8"/><text x="1164" y="313" font-family="IBM Plex Mono, monospace" font-size="12" fill="#a06520" font-weight="600" text-anchor="start">61%</text><line x1="276" y1="330" x2="1236" y2="330" stroke="#d8d1bd"/><circle cx="298" cy="352" r="4" fill="#a06520"/><text x="314" y="357" font-family="IBM Plex Sans, Helvetica, sans-serif" font-size="14" fill="#1a1714" font-weight="500" text-anchor="start">Dale Community</text><rect x="1036" y="348" width="110" height="8" rx="4" fill="#f3eee2" opacity="1"/><rect x="1036" y="348" width="70.4" height="8" rx="4" fill="#a06520" opacity="0.8"/><text x="1164" y="357" font-family="IBM Plex Mono, monospace" font-size="12" fill="#a06520" font-weight="600" text-anchor="start">64%</text><line x1="276" y1="374" x2="1236" y2="374" stroke="#d8d1bd"/><circle cx="298" cy="396" r="4" fill="#5e7c4b"/><text x="314" y="401" font-family="IBM Plex Sans, Helvetica, sans-serif" font-size="14" fill="#1a1714" font-weight="500" text-anchor="start">Elmwood</text><rect x="1036" y="392" width="110" height="8" rx="4" fill="#f3eee2" opacity="1"/><rect x="1036" y="392" width="72.6" height="8" rx="4" fill="#5e7c4b" opacity="0.8"/><text x="1164" y="401" font-family="IBM Plex Mono, monospace" font-size="12" fill="#5e7c4b" font-weight="600" text-anchor="start">66%</text><line x1="276" y1="418" x2="1236" y2="418" stroke="#d8d1bd"/><circle cx="298" cy="440" r="4" fill="#5e7c4b"/><text x="314" y="445" font-family="IBM Plex Sans, Helvetica, sans-serif" font-size="14" fill="#1a1714" font-weight="500" text-anchor="start">Fenton Grammar</text><rect x="1036" y="436" width="110" height="8" rx="4" fill="#f3eee2" opacity="1"/><rect x="1036" y="436" width="77.0" height="8" rx="4" fill="#5e7c4b" opacity="0.8"/><text x="1164" y="445" font-family="IBM Plex Mono, monospace" font-size="12" fill="#5e7c4b" font-weight="600" text-anchor="start">70%</text></svg>