<svg xmlns="http://www.w3.org/2000/svg" width="1280" height="760" viewBox="0 0 1280 760"><rect x="0" y="0" width="1280" height="760" rx="0" fill="#f3eee2" opacity="1"/><rect x="0" y="0" width="1280" height="34" rx="0" fill="#e7e0d0" opacity="1"/><circle cx="20" cy="17" r="5" fill="#d98b7a"/><circle cx="36" cy="17" r="5" fill="#d9c07a"/><circle cx="52" cy="17" r="5" fill="#9bbf8a"/><rect x="80" y="8" width="1120" height="18" rx="9" fill="#f3eee2" opacity="1"/><text x="94" y="21" font-family="IBM Plex Mono, monospace" font-size="10" fill="#8c8678" font-weight="400" text-anchor="start">app.feynman.education/slides</text><rect x="0" y="34" width="240" height="726" rx="0" fill="#faf6ec" opacity="1"/><line x1="240" y1="34" x2="240" y2="760" stroke="#dcd5c0"/><text x="24" y="66" font-family="IBM Plex Mono, monospace" font-size="9" fill="#8c8678" font-weight="400" text-anchor="start" letter-spacing="2.5">FEYNMAN EDUCATION</text><text x="24" y="96" font-family="Instrument Serif, Georgia, serif" font-size="26" fill="#1a1714">Feyn<tspan fill="#5e7c4b" font-style="italic">man</tspan></text><rect x="14" y="120" width="212" height="34" rx="6" fill="#f3eee2" stroke="#dcd5c0" opacity="1"/><text x="30" y="142" font-family="IBM Plex Mono, monospace" font-size="12" fill="#8c8678" font-weight="400" text-anchor="start">Search</text><text x="210" y="142" font-family="IBM Plex Mono, monospace" font-size="10" fill="#8c8678" font-weight="400" text-anchor="end">⌘K</text><text x="20" y="182" font-family="IBM Plex Mono, monospace" font-size="12" fill="#4d4940" font-weight="500" text-anchor="start">This week</text><text x="20" y="215" font-family="IBM Plex Mono, monospace" font-size="12" fill="#4d4940" font-weight="500" text-anchor="start">Curriculum</text><rect x="0" y="228" width="240" height="30" rx="0" fill="#f3eee2" opacity="1"/><rect x="0" y="228" width="2" height="30" rx="0" fill="#1a1714" opacity="1"/><text x="20" y="248" font-family="IBM Plex Mono, monospace" font-size="12" fill="#1a1714" font-weight="600" text-anchor="start">Slides</text><text x="20" y="281" font-family="IBM Plex Mono, monospace" font-size="12" fill="#4d4940" font-weight="500" text-anchor="start">Parents</text><text x="20" y="314" font-family="IBM Plex Mono, monospace" font-size="12" fill="#4d4940" font-weight="500" text-anchor="start">Assess</text><text x="20" y="347" font-family="IBM Plex Mono, monospace" font-size="12" fill="#4d4940" font-weight="500" text-anchor="start">School</text><text x="20" y="380" font-family="IBM Plex Mono, monospace" font-size="12" fill="#4d4940" font-weight="500" text-anchor="start">Trust</text><text x="20" y="413" font-family="IBM Plex Mono, monospace" font-size="12" fill="#4d4940" font-weight="500" text-anchor="start">Account</text><line x1="0" y1="702" x2="240" y2="702" stroke="#dcd5c0"/><circle cx="34" cy="731" r="14" fill="#f3eee2" stroke="#dcd5c0"/><text x="34" y="736" font-family="IBM Plex Mono, monospace" font-size="11" fill="#4d4940" font-weight="400" text-anchor="middle">A</text><text x="58" y="727" font-family="IBM Plex Sans, Helvetica, sans-serif" font-size="12" fill="#1a1714" font-weight="500" text-anchor="start">A. Houchell</text><text x="58" y="743" font-family="IBM Plex Mono, monospace" font-size="10" fill="#8c8678" font-weight="400" text-anchor="start">slt</text><text x="276" y="88" font-family="Instrument Serif, Georgia, serif" font-size="30" fill="#1a1714" font-weight="400" text-anchor="start">Slides</text><text x="1236" y="84" font-family="IBM Plex Mono, monospace" font-size="12" fill="#5e7c4b" font-weight="600" text-anchor="end">✨ Generate lesson</text><text x="1076" y="84" font-family="IBM Plex Mono, monospace" font-size="12" fill="#4d4940" font-weight="400" text-anchor="end">+ New deck</text><rect x="276" y="114" width="232" height="128" rx="8" fill="#faf6ec" stroke="#dcd5c0" opacity="1"/><rect x="276" y="114" width="232" height="86" rx="8" fill="#ffffff" stroke="#dcd5c0" opacity="1"/><rect x="276" y="192" width="232" height="8" rx="0" fill="#faf6ec" opacity="1"/><rect x="286" y="128" width="3" height="40" rx="0" fill="#5e7c4b" opacity="1"/><text x="296" y="144" font-family="Instrument Serif, Georgia, serif" font-size="12" fill="#1a1714" font-weight="400" text-anchor="start">Photosynthesis</text><text x="296" y="164" font-family="IBM Plex Mono, monospace" font-size="8" fill="#8c8678" font-weight="400" text-anchor="start">KS4 · 12 slides</text><text x="288" y="224" font-family="IBM Plex Sans, Helvetica, sans-serif" font-size="12" fill="#1a1714" font-weight="400" text-anchor="start">Photosynthesis</text><rect x="518" y="114" width="232" height="128" rx="8" fill="#faf6ec" stroke="#dcd5c0" opacity="1"/><rect x="518" y="114" width="232" height="86" rx="8" fill="#ffffff" stroke="#dcd5c0" opacity="1"/><rect x="518" y="192" width="232" height="8" rx="0" fill="#faf6ec" opacity="1"/><rect x="528" y="128" width="3" height="40" rx="0" fill="#5e7c4b" opacity="1"/><text x="538" y="144" font-family="Instrument Serif, Georgia, serif" font-size="12" fill="#1a1714" font-weight="400" text-anchor="start">Cell transport</text><text x="538" y="164" font-family="IBM Plex Mono, monospace" font-size="8" fill="#8c8678" font-weight="400" text-anchor="start">KS4 · 12 slides</text><text x="530" y="224" font-family="IBM Plex Sans, Helvetica, sans-serif" font-size="12" fill="#1a1714" font-weight="400" text-anchor="start">Cell transport</text><rect x="760" y="114" width="232" height="128" rx="8" fill="#faf6ec" stroke="#dcd5c0" opacity="1"/><rect x="760" y="114" width="232" height="86" rx="8" fill="#ffffff" stroke="#dcd5c0" opacity="1"/><rect x="760" y="192" width="232" height="8" rx="0" fill="#faf6ec" opacity="1"/><rect x="770" y="128" width="3" height="40" rx="0" fill="#2e3a5f" opacity="1"/><text x="780" y="144" font-family="Instrument Serif, Georgia, serif" font-size="12" fill="#1a1714" font-weight="400" text-anchor="start">Forces &amp; motion</text><text x="780" y="164" font-family="IBM Plex Mono, monospace" font-size="8" fill="#8c8678" font-weight="400" text-anchor="start">KS4 · 12 slides</text><text x="772" y="224" font-family="IBM Plex Sans, Helvetica, sans-serif" font-size="12" fill="#1a1714" font-weight="400" text-anchor="start">Forces &amp; motion</text><rect x="1002" y="114" width="232" height="128" rx="8" fill="#faf6ec" stroke="#dcd5c0" opacity="1"/><rect x="1002" y="114" width="232" height="86" rx="8" fill="#ffffff" stroke="#dcd5c0" opacity="1"/><rect x="1002" y="192" width="232" height="8" rx="0" fill="#faf6ec" opacity="1"/><rect x="1012" y="128" width="3" height="40" rx="0" fill="#b95a3c" opacity="1"/><text x="1022" y="144" font-family="Instrument Serif, Georgia, serif" font-size="12" fill="#1a1714" font-weight="400" text-anchor="start">Acids &amp; alkalis</text><text x="1022" y="164" font-family="IBM Plex Mono, monospace" font-size="8" fill="#8c8678" font-weight="400" text-anchor="start">KS4 · 12 slides</text><text x="1014" y="224" font-family="IBM Plex Sans, Helvetica, sans-serif" font-size="12" fill="#1a1714" font-weight="400" text-anchor="start">Acids &amp; alkalis</text><rect x="276" y="264" width="232" height="128" rx="8" fill="#faf6ec" stroke="#dcd5c0" opacity="1"/><rect x="276" y="264" width="232" height="86" rx="8" fill="#ffffff" stroke="#dcd5c0" opacity="1"/><rect x="276" y="342" width="232" height="8" rx="0" fill="#faf6ec" opacity="1"/><rect x="286" y="278" width="3" height="40" rx="0" fill="#5e7c4b" opacity="1"/><text x="296" y="294" font-family="Instrument Serif, Georgia, serif" font-size="12" fill="#1a1714" font-weight="400" text-anchor="start">The heart</text><text x="296" y="314" font-family="IBM Plex Mono, monospace" font-size="8" fill="#8c8678" font-weight="400" text-anchor="start">KS4 · 12 slides</text><text x="288" y="374" font-family="IBM Plex Sans, Helvetica, sans-serif" font-size="12" fill="#1a1714" font-weight="400" text-anchor="start">The heart</text><rect x="518" y="264" width="232" height="128" rx="8" fill="#faf6ec" stroke="#dcd5c0" opacity="1"/><rect x="518" y="264" width="232" height="86" rx="8" fill="#ffffff" stroke="#dcd5c0" opacity="1"/><rect x="518" y="342" width="232" height="8" rx="0" fill="#faf6ec" opacity="1"/><rect x="528" y="278" width="3" height="40" rx="0" fill="#2e3a5f" opacity="1"/><text x="538" y="294" font-family="Instrument Serif, Georgia, serif" font-size="12" fill="#1a1714" font-weight="400" text-anchor="start">Electricity</text><text x="538" y="314" font-family="IBM Plex Mono, monospace" font-size="8" fill="#8c8678" font-weight="400" text-anchor="start">KS4 · 12 slides</text><text x="530" y="374" font-family="IBM Plex Sans, Helvetica, sans-serif" font-size="12" fill="#1a1714" font-weight="400" text-anchor="start">Electricity</text><rect x="240" y="34" width="1040" height="726" rx="0" fill="#1a1714" opacity="0.45"/><rect x="530" y="174" width="460" height="300" rx="12" fill="#faf6ec" stroke="#dcd5c0" opacity="1"/><text x="556" y="218" font-family="Instrument Serif, Georgia, serif" font-size="26" fill="#1a1714" font-weight="400" text-anchor="start">Generate a lesson</text><text x="556" y="244" font-family="IBM Plex Sans, Helvetica, sans-serif" font-size="12" fill="#4d4940" font-weight="400" text-anchor="start">Pick a unit and AI drafts a full, ready-to-teach deck.</text><text x="556" y="278" font-family="IBM Plex Mono, monospace" font-size="10" fill="#8c8678" font-weight="400" text-anchor="start" letter-spacing="1.2">UNIT</text><rect x="556" y="288" width="408" height="38" rx="6" fill="#f3eee2" stroke="#dcd5c0" opacity="1"/><text x="570" y="312" font-family="IBM Plex Mono, monospace" font-size="13" fill="#1a1714" font-weight="400" text-anchor="start">Y10 · Photosynthesis</text><text x="556" y="352" font-family="IBM Plex Mono, monospace" font-size="10" fill="#8c8678" font-weight="400" text-anchor="start" letter-spacing="1.2">FOCUS (OPTIONAL)</text><rect x="556" y="362" width="408" height="38" rx="6" fill="#f3eee2" stroke="#dcd5c0" opacity="1"/><text x="570" y="386" font-family="IBM Plex Mono, monospace" font-size="12" fill="#8c8678" font-weight="400" text-anchor="start">exam technique on the required practical</text><rect x="830" y="424" width="134" height="38" rx="6" fill="#1a1714" opacity="1"/><text x="897" y="448" font-family="IBM Plex Mono, monospace" font-size="13" fill="#f3eee2" font-weight="600" text-anchor="middle">✨ Generate</text></svg>