<svg xmlns="http://www.w3.org/2000/svg" width="512" height="512" viewBox="0 0 512 512">
  <rect width="512" height="512" rx="96" fill="#1a1714"/>
  <g transform="translate(256 270)">
    <!-- car body -->
    <path d="M-150 40 q6 -70 40 -96 q24 -20 110 -20 q86 0 110 20 q34 26 40 96 l0 36 q0 16 -16 16 l-26 0 q-16 0 -16 -16 l0 -8 l-184 0 l0 8 q0 16 -16 16 l-26 0 q-16 0 -16 -16 z" fill="#c8102e"/>
    <!-- windows -->
    <path d="M-92 -42 q14 -34 36 -42 q22 -6 56 -6 q34 0 56 6 q22 8 36 42 z" fill="#9fd0ec"/>
    <!-- wheels -->
    <circle cx="-96" cy="92" r="34" fill="#16181b"/>
    <circle cx="96" cy="92" r="34" fill="#16181b"/>
    <circle cx="-96" cy="92" r="14" fill="#5a626b"/>
    <circle cx="96" cy="92" r="14" fill="#5a626b"/>
    <!-- headlights -->
    <rect x="-150" y="8" width="20" height="20" rx="6" fill="#fff7d6"/>
    <rect x="130" y="8" width="20" height="20" rx="6" fill="#fff7d6"/>
  </g>
  <rect x="120" y="392" width="272" height="40" rx="20" fill="#5e7c4b"/>
</svg>
